<svg width="58" height="61" viewBox="0 0 58 61" fill="none" xmlns="http://www.w3.org/2000/svg">
<g filter="url(#filter0_dd_82_230508)">
<rect x="5" y="4" width="48" height="48" rx="24" fill="white"/>
<rect x="6" y="5" width="46" height="46" rx="23" stroke="white" stroke-width="2"/>
<path d="M30.314 28.071L25.364 23.121C25.1819 22.9324 25.0811 22.6798 25.0834 22.4176C25.0856 22.1554 25.1908 21.9046 25.3762 21.7192C25.5616 21.5338 25.8124 21.4286 26.0746 21.4263C26.3368 21.424 26.5894 21.5248 26.778 21.707L32.435 27.364C32.6225 27.5515 32.7278 27.8058 32.7278 28.071C32.7278 28.3361 32.6225 28.5905 32.435 28.778L26.778 34.435C26.5894 34.6171 26.3368 34.7179 26.0746 34.7157C25.8124 34.7134 25.5616 34.6082 25.3762 34.4228C25.1908 34.2374 25.0856 33.9866 25.0834 33.7244C25.0811 33.4622 25.1819 33.2096 25.364 33.021L30.314 28.071Z" fill="#475569"/>
</g>
<defs>
<filter id="filter0_dd_82_230508" x="0" y="0" width="58" height="61" filterUnits="userSpaceOnUse" color-interpolation-filters="sRGB">
<feFlood flood-opacity="0" result="BackgroundImageFix"/>
<feColorMatrix in="SourceAlpha" type="matrix" values="0 0 0 0 0 0 0 0 0 0 0 0 0 0 0 0 0 0 127 0" result="hardAlpha"/>
<feOffset/>
<feGaussianBlur stdDeviation="2"/>
<feColorMatrix type="matrix" values="0 0 0 0 0 0 0 0 0 0 0 0 0 0 0 0 0 0 0.07 0"/>
<feBlend mode="normal" in2="BackgroundImageFix" result="effect1_dropShadow_82_230508"/>
<feColorMatrix in="SourceAlpha" type="matrix" values="0 0 0 0 0 0 0 0 0 0 0 0 0 0 0 0 0 0 127 0" result="hardAlpha"/>
<feMorphology radius="1" operator="erode" in="SourceAlpha" result="effect2_dropShadow_82_230508"/>
<feOffset dy="4"/>
<feGaussianBlur stdDeviation="3"/>
<feColorMatrix type="matrix" values="0 0 0 0 0 0 0 0 0 0 0 0 0 0 0 0 0 0 0.1 0"/>
<feBlend mode="normal" in2="effect1_dropShadow_82_230508" result="effect2_dropShadow_82_230508"/>
<feBlend mode="normal" in="SourceGraphic" in2="effect2_dropShadow_82_230508" result="shape"/>
</filter>
</defs>
</svg>
