<svg width="603" height="24" viewBox="0 0 603 24" fill="none" xmlns="http://www.w3.org/2000/svg">
<path d="M436.812 5.01711H425.145C422.855 5.01711 421 6.85211 421 9.11611V14.8841C421 17.1481 422.856 18.9841 425.145 18.9841H436.812C439.102 18.9841 440.957 17.1481 440.957 14.8841V9.11611C440.957 6.85211 439.101 5.01611 436.812 5.01611V5.01711ZM434.009 12.2801L428.552 14.8551C428.519 14.8711 428.482 14.8785 428.445 14.8765C428.408 14.8744 428.372 14.8631 428.341 14.8436C428.31 14.824 428.284 14.7968 428.266 14.7646C428.248 14.7323 428.238 14.6961 428.238 14.6591V9.35011C428.239 9.31299 428.249 9.27663 428.267 9.24444C428.286 9.21224 428.312 9.18526 428.344 9.16599C428.376 9.14673 428.412 9.13581 428.449 9.13425C428.486 9.1327 428.523 9.14057 428.556 9.15711L434.014 11.8921C434.05 11.9102 434.081 11.9383 434.102 11.9729C434.123 12.0076 434.134 12.0476 434.134 12.0882C434.133 12.1288 434.121 12.1685 434.099 12.2026C434.077 12.2367 434.046 12.2639 434.009 12.2811V12.2801Z" fill="#475569"/>
<path d="M468.046 5.865V8.613H466.032V11.973H468.046V21.959H472.18V11.974H474.955C474.955 11.974 475.215 10.363 475.341 8.601H472.197V6.303C472.197 5.96 472.647 5.498 473.093 5.498H475.347V2H472.283C467.943 2 468.046 5.363 468.046 5.865Z" fill="#475569"/>
<path d="M521 5.90716C520.25 6.23454 519.456 6.4492 518.644 6.54416C519.497 6.0434 520.138 5.24927 520.448 4.31016C519.64 4.78049 518.759 5.11177 517.841 5.29016C517.455 4.88537 516.99 4.56355 516.475 4.34434C515.96 4.12513 515.406 4.01313 514.846 4.01516C512.58 4.01516 510.743 5.82516 510.743 8.05516C510.743 8.37116 510.779 8.68016 510.849 8.97516C509.224 8.89786 507.632 8.48257 506.176 7.7558C504.72 7.02903 503.432 6.00674 502.393 4.75416C502.029 5.36857 501.837 6.06994 501.839 6.78416C501.84 7.45213 502.007 8.10939 502.325 8.69656C502.644 9.28372 503.104 9.78228 503.663 10.1472C503.012 10.1262 502.376 9.95249 501.805 9.64016V9.69016C501.805 11.6482 503.22 13.2812 505.095 13.6532C504.743 13.7467 504.38 13.7941 504.015 13.7942C503.75 13.7942 503.493 13.7692 503.242 13.7192C503.51 14.5271 504.023 15.2315 504.71 15.7345C505.397 16.2375 506.223 16.5142 507.074 16.5262C505.614 17.6507 503.822 18.2582 501.979 18.2532C501.647 18.2532 501.321 18.2332 501 18.1972C502.881 19.3879 505.063 20.0184 507.289 20.0152C514.836 20.0152 518.962 13.8582 518.962 8.51916L518.948 7.99616C519.753 7.42983 520.448 6.72201 521 5.90716Z" fill="#475569"/>
<path d="M555.017 2H546.947C545.37 2.00185 543.858 2.62914 542.744 3.74424C541.629 4.85933 541.002 6.37115 541 7.948V16.018C541.002 17.5948 541.629 19.1066 542.744 20.2215C543.859 21.3364 545.371 21.9634 546.948 21.965H555.018C556.595 21.9631 558.107 21.3359 559.221 20.2208C560.336 19.1057 560.963 17.5938 560.965 16.017V7.947C560.963 6.37015 560.336 4.85844 559.221 3.74353C558.106 2.62862 556.594 2.00159 555.017 2V2ZM558.957 16.017C558.957 16.5344 558.855 17.0468 558.657 17.5248C558.459 18.0028 558.169 18.4371 557.803 18.803C557.437 19.1689 557.003 19.4591 556.525 19.6571C556.047 19.8551 555.534 19.957 555.017 19.957H546.947C545.902 19.9567 544.9 19.5415 544.162 18.8026C543.423 18.0638 543.008 17.0618 543.008 16.017V7.947C543.008 6.90222 543.423 5.90032 544.162 5.16165C544.901 4.42297 545.903 4.008 546.948 4.008H555.018C556.063 4.00827 557.065 4.42349 557.803 5.16235C558.542 5.90122 558.957 6.90322 558.957 7.948V16.018V16.017Z" fill="#475569"/>
<path d="M550.982 6.81885C549.613 6.82096 548.302 7.36563 547.334 8.33345C546.366 9.30127 545.822 10.6133 545.82 11.9818C545.822 13.3508 546.366 14.6632 547.334 15.6312C548.302 16.5993 549.614 17.144 550.983 17.1458C552.352 17.1443 553.665 16.5997 554.633 15.6316C555.601 14.6635 556.145 13.3509 556.147 11.9818C556.145 10.6129 555.6 9.30073 554.632 8.33304C553.663 7.36535 552.351 6.82117 550.982 6.81985V6.81885ZM550.982 15.1378C550.145 15.1378 549.343 14.8054 548.751 14.2138C548.159 13.6221 547.827 12.8196 547.827 11.9828C547.827 11.1461 548.159 10.3436 548.751 9.75193C549.343 9.16025 550.145 8.82785 550.982 8.82785C551.819 8.82785 552.621 9.16025 553.213 9.75193C553.805 10.3436 554.137 11.1461 554.137 11.9828C554.137 12.8196 553.805 13.6221 553.213 14.2138C552.621 14.8054 551.819 15.1378 550.982 15.1378Z" fill="#475569"/>
<path d="M556.156 8.09509C556.839 8.09509 557.393 7.54127 557.393 6.85809C557.393 6.17492 556.839 5.62109 556.156 5.62109C555.473 5.62109 554.919 6.17492 554.919 6.85809C554.919 7.54127 555.473 8.09509 556.156 8.09509Z" fill="#475569"/>
<path d="M600.959 13.7189V21.0979H596.681V14.2129C596.681 12.4829 596.062 11.3029 594.514 11.3029C593.332 11.3029 592.628 12.0989 592.319 12.8679C592.206 13.1429 592.177 13.5259 592.177 13.9109V21.0979H587.897C587.897 21.0979 587.955 9.43788 587.897 8.22888H592.177V10.0529L592.149 10.0949H592.177V10.0529C592.745 9.17788 593.76 7.92688 596.033 7.92688C598.848 7.92688 600.959 9.76688 600.959 13.7189ZM583.421 2.02588C581.958 2.02588 581 2.98588 581 4.24888C581 5.48388 581.93 6.47288 583.365 6.47288H583.393C584.886 6.47288 585.813 5.48388 585.813 4.24888C585.787 2.98588 584.887 2.02588 583.422 2.02588H583.421ZM581.254 21.0979H585.532V8.22888H581.254V21.0979Z" fill="#475569"/>
</svg>
